<svg width="33" height="32" viewBox="0 0 33 32" fill="none" xmlns="http://www.w3.org/2000/svg">
<path d="M28.5043 26.3103L20.5114 18.3174C21.7517 16.7139 22.4227 14.7533 22.4227 12.6912C22.4227 10.2229 21.4593 7.90839 19.7173 6.1633C17.9753 4.41821 15.6547 3.45795 13.1894 3.45795C10.7241 3.45795 8.40348 4.42128 6.66147 6.1633C4.91638 7.90531 3.95612 10.2229 3.95612 12.6912C3.95612 15.1565 4.91945 17.4771 6.66147 19.2191C8.40348 20.9642 10.721 21.9245 13.1894 21.9245C15.2515 21.9245 17.2089 21.2535 18.8125 20.0163L26.8054 28.0061C26.8288 28.0296 26.8567 28.0482 26.8873 28.0609C26.9179 28.0736 26.9507 28.0801 26.9839 28.0801C27.0171 28.0801 27.0499 28.0736 27.0805 28.0609C27.1111 28.0482 27.139 28.0296 27.1624 28.0061L28.5043 26.6673C28.5278 26.6439 28.5464 26.6161 28.5591 26.5854C28.5718 26.5548 28.5783 26.522 28.5783 26.4888C28.5783 26.4557 28.5718 26.4228 28.5591 26.3922C28.5464 26.3616 28.5278 26.3337 28.5043 26.3103V26.3103ZM18.0646 17.5664C16.7596 18.8683 15.0299 19.5854 13.1894 19.5854C11.3489 19.5854 9.61919 18.8683 8.31422 17.5664C7.01233 16.2614 6.29521 14.5317 6.29521 12.6912C6.29521 10.8507 7.01233 9.11794 8.31422 7.81605C9.61919 6.51416 11.3489 5.79704 13.1894 5.79704C15.0299 5.79704 16.7627 6.51108 18.0646 7.81605C19.3665 9.12102 20.0836 10.8507 20.0836 12.6912C20.0836 14.5317 19.3665 16.2645 18.0646 17.5664Z" fill="#BFBFBF"/>
</svg>
